<svg xmlns="http://www.w3.org/2000/svg" viewBox="0 0 800 450">
  <defs>
    <linearGradient id="g" x1="0" y1="0" x2="1" y2="1">
      <stop offset="0" stop-color="#b45309"/>
      <stop offset="1" stop-color="#f8b63e"/>
    </linearGradient>
  </defs>
  <rect width="800" height="450" fill="url(#g)"/>
  <circle cx="710" cy="80" r="120" fill="#ffffff" opacity="0.10"/>
  <circle cx="90" cy="400" r="150" fill="#0c090a" opacity="0.16"/>
  <g stroke="#ffffff" stroke-width="6" opacity="0.9">
    <line x1="400" y1="90" x2="400" y2="360"/>
    <line x1="400" y1="90" x2="260" y2="200"/>
    <line x1="400" y1="90" x2="540" y2="200"/>
    <line x1="260" y1="200" x2="220" y2="320"/>
    <line x1="260" y1="200" x2="340" y2="290"/>
    <line x1="540" y1="200" x2="480" y2="320"/>
    <line x1="540" y1="200" x2="610" y2="300"/>
  </g>
  <g fill="#ffffff">
    <circle cx="400" cy="90" r="18"/>
    <circle cx="400" cy="360" r="14"/>
    <circle cx="260" cy="200" r="16"/>
    <circle cx="540" cy="200" r="16"/>
    <circle cx="220" cy="320" r="12"/>
    <circle cx="340" cy="290" r="12"/>
    <circle cx="480" cy="320" r="12"/>
    <circle cx="610" cy="300" r="12"/>
  </g>
</svg>
